<?xml version="1.0" encoding="utf-8" standalone="no"?>
<!DOCTYPE svg PUBLIC "-//W3C//DTD SVG 1.1//EN"
  "http://www.w3.org/Graphics/SVG/1.1/DTD/svg11.dtd">
<svg xmlns:xlink="http://www.w3.org/1999/xlink" width="864pt" height="345.6pt" viewBox="0 0 864 345.6" xmlns="http://www.w3.org/2000/svg" version="1.1">
 <metadata>
  <rdf:RDF xmlns:dc="http://purl.org/dc/elements/1.1/" xmlns:cc="http://creativecommons.org/ns#" xmlns:rdf="http://www.w3.org/1999/02/22-rdf-syntax-ns#">
   <cc:Work>
    <dc:type rdf:resource="http://purl.org/dc/dcmitype/StillImage"/>
    <dc:date>2026-09-08T15:01:49.639486</dc:date>
    <dc:format>image/svg+xml</dc:format>
    <dc:creator>
     <cc:Agent>
      <dc:title>Matplotlib v3.11.1, https://matplotlib.org/</dc:title>
     </cc:Agent>
    </dc:creator>
   </cc:Work>
  </rdf:RDF>
 </metadata>
 <defs>
  <style type="text/css">*{stroke-linejoin: round; stroke-linecap: butt}</style>
 </defs>
 <g id="figure_1">
  <g id="patch_1">
   <path d="M 0 345.6 
L 864 345.6 
L 864 0 
L 0 0 
z
" style="fill: #ffffff"/>
  </g>
  <g id="axes_1">
   <g id="patch_2">
    <path d="M 143.976802 311.598979 
L 460.416328 311.598979 
L 460.416328 55.439704 
L 143.976802 55.439704 
z
" style="fill: #ffffff"/>
   </g>
   <g id="matplotlib.axis_1">
    <g id="xtick_1">
     <g id="line2d_1">
      <defs>
       <path id="mcfdc866c15" d="M 0 0 
L 0 3.5 
" style="stroke: #000000; stroke-width: 0.8"/>
      </defs>
      <g>
       <use xlink:href="#mcfdc866c15" x="143.976802" y="311.598979" style="stroke: #000000; stroke-width: 0.8"/>
      </g>
     </g>
     <g id="text_1">
      <text style="font-size: 10px; font-family: 'DejaVu Sans'; text-anchor: middle" x="143.976802" y="326.196635" transform="rotate(-0 143.976802 326.196635)">0</text>
     </g>
    </g>
    <g id="xtick_2">
     <g id="line2d_2">
      <g>
       <use xlink:href="#mcfdc866c15" x="189.182449" y="311.598979" style="stroke: #000000; stroke-width: 0.8"/>
      </g>
     </g>
     <g id="text_2">
      <text style="font-size: 10px; font-family: 'DejaVu Sans'; text-anchor: middle" x="189.182449" y="326.196635" transform="rotate(-0 189.182449 326.196635)">1</text>
     </g>
    </g>
    <g id="xtick_3">
     <g id="line2d_3">
      <g>
       <use xlink:href="#mcfdc866c15" x="234.388096" y="311.598979" style="stroke: #000000; stroke-width: 0.8"/>
      </g>
     </g>
     <g id="text_3">
      <text style="font-size: 10px; font-family: 'DejaVu Sans'; text-anchor: middle" x="234.388096" y="326.196635" transform="rotate(-0 234.388096 326.196635)">2</text>
     </g>
    </g>
    <g id="xtick_4">
     <g id="line2d_4">
      <g>
       <use xlink:href="#mcfdc866c15" x="279.593742" y="311.598979" style="stroke: #000000; stroke-width: 0.8"/>
      </g>
     </g>
     <g id="text_4">
      <text style="font-size: 10px; font-family: 'DejaVu Sans'; text-anchor: middle" x="279.593742" y="326.196635" transform="rotate(-0 279.593742 326.196635)">3</text>
     </g>
    </g>
    <g id="xtick_5">
     <g id="line2d_5">
      <g>
       <use xlink:href="#mcfdc866c15" x="324.799389" y="311.598979" style="stroke: #000000; stroke-width: 0.8"/>
      </g>
     </g>
     <g id="text_5">
      <text style="font-size: 10px; font-family: 'DejaVu Sans'; text-anchor: middle" x="324.799389" y="326.196635" transform="rotate(-0 324.799389 326.196635)">4</text>
     </g>
    </g>
    <g id="xtick_6">
     <g id="line2d_6">
      <g>
       <use xlink:href="#mcfdc866c15" x="370.005035" y="311.598979" style="stroke: #000000; stroke-width: 0.8"/>
      </g>
     </g>
     <g id="text_6">
      <text style="font-size: 10px; font-family: 'DejaVu Sans'; text-anchor: middle" x="370.005035" y="326.196635" transform="rotate(-0 370.005035 326.196635)">5</text>
     </g>
    </g>
    <g id="xtick_7">
     <g id="line2d_7">
      <g>
       <use xlink:href="#mcfdc866c15" x="415.210682" y="311.598979" style="stroke: #000000; stroke-width: 0.8"/>
      </g>
     </g>
     <g id="text_7">
      <text style="font-size: 10px; font-family: 'DejaVu Sans'; text-anchor: middle" x="415.210682" y="326.196635" transform="rotate(-0 415.210682 326.196635)">6</text>
     </g>
    </g>
    <g id="xtick_8">
     <g id="line2d_8">
      <g>
       <use xlink:href="#mcfdc866c15" x="460.416328" y="311.598979" style="stroke: #000000; stroke-width: 0.8"/>
      </g>
     </g>
     <g id="text_8">
      <text style="font-size: 10px; font-family: 'DejaVu Sans'; text-anchor: middle" x="460.416328" y="326.196635" transform="rotate(-0 460.416328 326.196635)">7</text>
     </g>
    </g>
    <g id="text_9">
     <text style="font-size: 10px; font-family: 'DejaVu Sans'; text-anchor: middle" x="302.196565" y="340.197416" transform="rotate(-0 302.196565 340.197416)">x / h</text>
    </g>
   </g>
   <g id="matplotlib.axis_2">
    <g id="ytick_1">
     <g id="line2d_9">
      <defs>
       <path id="mad3124fc00" d="M 0 0 
L -3.5 0 
" style="stroke: #000000; stroke-width: 0.8"/>
      </defs>
      <g>
       <use xlink:href="#mad3124fc00" x="143.976802" y="101.63236" style="stroke: #000000; stroke-width: 0.8"/>
      </g>
     </g>
     <g id="text_10">
      <text style="font-size: 10px; font-family: 'DejaVu Sans'; text-anchor: end" x="136.976802" y="105.431579" transform="rotate(-0 136.976802 105.431579)">Native negative branch</text>
     </g>
    </g>
    <g id="ytick_2">
     <g id="line2d_10">
      <g>
       <use xlink:href="#mad3124fc00" x="143.976802" y="185.619008" style="stroke: #000000; stroke-width: 0.8"/>
      </g>
     </g>
     <g id="text_11">
      <text style="font-size: 10px; font-family: 'DejaVu Sans'; text-anchor: end" x="136.976802" y="189.418226" transform="rotate(-0 136.976802 189.418226)">Quadratic negative branch</text>
     </g>
    </g>
    <g id="ytick_3">
     <g id="line2d_11">
      <g>
       <use xlink:href="#mad3124fc00" x="143.976802" y="269.605655" style="stroke: #000000; stroke-width: 0.8"/>
      </g>
     </g>
     <g id="text_12">
      <text style="font-size: 10px; font-family: 'DejaVu Sans'; text-anchor: end" x="136.976802" y="273.404874" transform="rotate(-0 136.976802 273.404874)">Mutual overlap</text>
     </g>
    </g>
   </g>
   <g id="line2d_12">
    <path d="M 150.757649 101.63236 
L 440.073787 101.63236 
" clip-path="url(#pf0675b45e3)" style="fill: none; stroke: #136e70; stroke-width: 9"/>
    <defs>
     <path id="m94aa27e8e5" d="M 0 9 
L 0 -9 
" style="stroke: #136e70"/>
    </defs>
    <g clip-path="url(#pf0675b45e3)">
     <use xlink:href="#m94aa27e8e5" x="150.757649" y="101.63236" style="fill: #136e70; stroke: #136e70"/>
     <use xlink:href="#m94aa27e8e5" x="440.073787" y="101.63236" style="fill: #136e70; stroke: #136e70"/>
    </g>
   </g>
   <g id="line2d_13">
    <path d="M 155.278214 185.619008 
L 444.594352 185.619008 
" clip-path="url(#pf0675b45e3)" style="fill: none; stroke: #ce7524; stroke-width: 9"/>
    <defs>
     <path id="mb9adb55cfc" d="M 0 9 
L 0 -9 
" style="stroke: #ce7524"/>
    </defs>
    <g clip-path="url(#pf0675b45e3)">
     <use xlink:href="#mb9adb55cfc" x="155.278214" y="185.619008" style="fill: #ce7524; stroke: #ce7524"/>
     <use xlink:href="#mb9adb55cfc" x="444.594352" y="185.619008" style="fill: #ce7524; stroke: #ce7524"/>
    </g>
   </g>
   <g id="line2d_14">
    <path d="M 155.278214 269.605655 
L 440.073787 269.605655 
" clip-path="url(#pf0675b45e3)" style="fill: none; stroke: #718669; stroke-width: 9"/>
    <defs>
     <path id="m7229987ac6" d="M 0 9 
L 0 -9 
" style="stroke: #718669"/>
    </defs>
    <g clip-path="url(#pf0675b45e3)">
     <use xlink:href="#m7229987ac6" x="155.278214" y="269.605655" style="fill: #718669; stroke: #718669"/>
     <use xlink:href="#m7229987ac6" x="440.073787" y="269.605655" style="fill: #718669; stroke: #718669"/>
    </g>
   </g>
   <g id="patch_3">
    <path d="M 143.976802 311.598979 
L 143.976802 55.439704 
" style="fill: none; stroke: #000000; stroke-width: 0.8; stroke-linejoin: miter; stroke-linecap: square"/>
   </g>
   <g id="patch_4">
    <path d="M 143.976802 311.598979 
L 460.416328 311.598979 
" style="fill: none; stroke: #000000; stroke-width: 0.8; stroke-linejoin: miter; stroke-linecap: square"/>
   </g>
   <g id="text_13">
    <text style="font-size: 10px; font-family: 'DejaVu Sans'; text-anchor: middle" x="297.676001" y="89.034363" transform="rotate(-0 297.676001 89.034363)">sample indices [1, 65]</text>
   </g>
   <g id="text_14">
    <text style="font-size: 10px; font-family: 'DejaVu Sans'; text-anchor: middle" x="297.676001" y="173.021011" transform="rotate(-0 297.676001 173.021011)">sample indices [2, 66]</text>
   </g>
   <g id="text_15">
    <text style="font-size: 10px; font-family: 'DejaVu Sans'; text-anchor: middle" x="297.676001" y="257.007658" transform="rotate(-0 297.676001 257.007658)">sample indices [2, 65]</text>
   </g>
   <g id="text_16">
    <text style="font-size: 12px; font-family: 'DejaVu Sans'; text-anchor: middle" x="302.196565" y="49.439704" transform="rotate(-0 302.196565 49.439704)">One branch corresponds to exactly one branch</text>
   </g>
  </g>
  <g id="axes_2">
   <g id="patch_5">
    <path d="M 536.608672 311.598979 
L 853.048197 311.598979 
L 853.048197 55.439704 
L 536.608672 55.439704 
z
" style="fill: #ffffff"/>
   </g>
   <g id="matplotlib.axis_3">
    <g id="xtick_9">
     <g id="line2d_15">
      <path d="M 565.375901 311.598979 
L 565.375901 55.439704 
" clip-path="url(#p8215b9f08b)" style="fill: none; stroke: #b0b0b0; stroke-opacity: 0.15; stroke-width: 0.8; stroke-linecap: square"/>
     </g>
     <g id="line2d_16">
      <g>
       <use xlink:href="#mcfdc866c15" x="565.375901" y="311.598979" style="stroke: #000000; stroke-width: 0.8"/>
      </g>
     </g>
     <g id="text_17">
      <text style="font-size: 10px; font-family: 'DejaVu Sans'; text-anchor: middle" x="565.375901" y="326.196635" transform="rotate(-0 565.375901 326.196635)">6.4</text>
     </g>
    </g>
    <g id="xtick_10">
     <g id="line2d_17">
      <path d="M 622.910361 311.598979 
L 622.910361 55.439704 
" clip-path="url(#p8215b9f08b)" style="fill: none; stroke: #b0b0b0; stroke-opacity: 0.15; stroke-width: 0.8; stroke-linecap: square"/>
     </g>
     <g id="line2d_18">
      <g>
       <use xlink:href="#mcfdc866c15" x="622.910361" y="311.598979" style="stroke: #000000; stroke-width: 0.8"/>
      </g>
     </g>
     <g id="text_18">
      <text style="font-size: 10px; font-family: 'DejaVu Sans'; text-anchor: middle" x="622.910361" y="326.196635" transform="rotate(-0 622.910361 326.196635)">6.5</text>
     </g>
    </g>
    <g id="xtick_11">
     <g id="line2d_19">
      <path d="M 680.44482 311.598979 
L 680.44482 55.439704 
" clip-path="url(#p8215b9f08b)" style="fill: none; stroke: #b0b0b0; stroke-opacity: 0.15; stroke-width: 0.8; stroke-linecap: square"/>
     </g>
     <g id="line2d_20">
      <g>
       <use xlink:href="#mcfdc866c15" x="680.44482" y="311.598979" style="stroke: #000000; stroke-width: 0.8"/>
      </g>
     </g>
     <g id="text_19">
      <text style="font-size: 10px; font-family: 'DejaVu Sans'; text-anchor: middle" x="680.44482" y="326.196635" transform="rotate(-0 680.44482 326.196635)">6.6</text>
     </g>
    </g>
    <g id="xtick_12">
     <g id="line2d_21">
      <path d="M 737.979279 311.598979 
L 737.979279 55.439704 
" clip-path="url(#p8215b9f08b)" style="fill: none; stroke: #b0b0b0; stroke-opacity: 0.15; stroke-width: 0.8; stroke-linecap: square"/>
     </g>
     <g id="line2d_22">
      <g>
       <use xlink:href="#mcfdc866c15" x="737.979279" y="311.598979" style="stroke: #000000; stroke-width: 0.8"/>
      </g>
     </g>
     <g id="text_20">
      <text style="font-size: 10px; font-family: 'DejaVu Sans'; text-anchor: middle" x="737.979279" y="326.196635" transform="rotate(-0 737.979279 326.196635)">6.7</text>
     </g>
    </g>
    <g id="xtick_13">
     <g id="line2d_23">
      <path d="M 795.513738 311.598979 
L 795.513738 55.439704 
" clip-path="url(#p8215b9f08b)" style="fill: none; stroke: #b0b0b0; stroke-opacity: 0.15; stroke-width: 0.8; stroke-linecap: square"/>
     </g>
     <g id="line2d_24">
      <g>
       <use xlink:href="#mcfdc866c15" x="795.513738" y="311.598979" style="stroke: #000000; stroke-width: 0.8"/>
      </g>
     </g>
     <g id="text_21">
      <text style="font-size: 10px; font-family: 'DejaVu Sans'; text-anchor: middle" x="795.513738" y="326.196635" transform="rotate(-0 795.513738 326.196635)">6.8</text>
     </g>
    </g>
    <g id="xtick_14">
     <g id="line2d_25">
      <path d="M 853.048197 311.598979 
L 853.048197 55.439704 
" clip-path="url(#p8215b9f08b)" style="fill: none; stroke: #b0b0b0; stroke-opacity: 0.15; stroke-width: 0.8; stroke-linecap: square"/>
     </g>
     <g id="line2d_26">
      <g>
       <use xlink:href="#mcfdc866c15" x="853.048197" y="311.598979" style="stroke: #000000; stroke-width: 0.8"/>
      </g>
     </g>
     <g id="text_22">
      <text style="font-size: 10px; font-family: 'DejaVu Sans'; text-anchor: middle" x="853.048197" y="326.196635" transform="rotate(-0 853.048197 326.196635)">6.9</text>
     </g>
    </g>
    <g id="text_23">
     <text style="font-size: 10px; font-family: 'DejaVu Sans'; text-anchor: middle" x="694.828435" y="340.197416" transform="rotate(-0 694.828435 340.197416)">x / h</text>
    </g>
   </g>
   <g id="matplotlib.axis_4">
    <g id="ytick_4">
     <g id="line2d_27">
      <path d="M 536.608672 292.855617 
L 853.048197 292.855617 
" clip-path="url(#p8215b9f08b)" style="fill: none; stroke: #b0b0b0; stroke-opacity: 0.15; stroke-width: 0.8; stroke-linecap: square"/>
     </g>
     <g id="line2d_28">
      <g>
       <use xlink:href="#mad3124fc00" x="536.608672" y="292.855617" style="stroke: #000000; stroke-width: 0.8"/>
      </g>
     </g>
     <g id="text_24">
      <text style="font-size: 10px; font-family: 'DejaVu Sans'; text-anchor: end" x="529.608672" y="296.654445" transform="rotate(-0 529.608672 296.654445)">−0.0020</text>
     </g>
    </g>
    <g id="ytick_5">
     <g id="line2d_29">
      <path d="M 536.608672 261.616681 
L 853.048197 261.616681 
" clip-path="url(#p8215b9f08b)" style="fill: none; stroke: #b0b0b0; stroke-opacity: 0.15; stroke-width: 0.8; stroke-linecap: square"/>
     </g>
     <g id="line2d_30">
      <g>
       <use xlink:href="#mad3124fc00" x="536.608672" y="261.616681" style="stroke: #000000; stroke-width: 0.8"/>
      </g>
     </g>
     <g id="text_25">
      <text style="font-size: 10px; font-family: 'DejaVu Sans'; text-anchor: end" x="529.608672" y="265.415509" transform="rotate(-0 529.608672 265.415509)">−0.0015</text>
     </g>
    </g>
    <g id="ytick_6">
     <g id="line2d_31">
      <path d="M 536.608672 230.377745 
L 853.048197 230.377745 
" clip-path="url(#p8215b9f08b)" style="fill: none; stroke: #b0b0b0; stroke-opacity: 0.15; stroke-width: 0.8; stroke-linecap: square"/>
     </g>
     <g id="line2d_32">
      <g>
       <use xlink:href="#mad3124fc00" x="536.608672" y="230.377745" style="stroke: #000000; stroke-width: 0.8"/>
      </g>
     </g>
     <g id="text_26">
      <text style="font-size: 10px; font-family: 'DejaVu Sans'; text-anchor: end" x="529.608672" y="234.176574" transform="rotate(-0 529.608672 234.176574)">−0.0010</text>
     </g>
    </g>
    <g id="ytick_7">
     <g id="line2d_33">
      <path d="M 536.608672 199.13881 
L 853.048197 199.13881 
" clip-path="url(#p8215b9f08b)" style="fill: none; stroke: #b0b0b0; stroke-opacity: 0.15; stroke-width: 0.8; stroke-linecap: square"/>
     </g>
     <g id="line2d_34">
      <g>
       <use xlink:href="#mad3124fc00" x="536.608672" y="199.13881" style="stroke: #000000; stroke-width: 0.8"/>
      </g>
     </g>
     <g id="text_27">
      <text style="font-size: 10px; font-family: 'DejaVu Sans'; text-anchor: end" x="529.608672" y="202.937638" transform="rotate(-0 529.608672 202.937638)">−0.0005</text>
     </g>
    </g>
    <g id="ytick_8">
     <g id="line2d_35">
      <path d="M 536.608672 167.899874 
L 853.048197 167.899874 
" clip-path="url(#p8215b9f08b)" style="fill: none; stroke: #b0b0b0; stroke-opacity: 0.15; stroke-width: 0.8; stroke-linecap: square"/>
     </g>
     <g id="line2d_36">
      <g>
       <use xlink:href="#mad3124fc00" x="536.608672" y="167.899874" style="stroke: #000000; stroke-width: 0.8"/>
      </g>
     </g>
     <g id="text_28">
      <text style="font-size: 10px; font-family: 'DejaVu Sans'; text-anchor: end" x="529.608672" y="171.698702" transform="rotate(-0 529.608672 171.698702)">0.0000</text>
     </g>
    </g>
    <g id="ytick_9">
     <g id="line2d_37">
      <path d="M 536.608672 136.660938 
L 853.048197 136.660938 
" clip-path="url(#p8215b9f08b)" style="fill: none; stroke: #b0b0b0; stroke-opacity: 0.15; stroke-width: 0.8; stroke-linecap: square"/>
     </g>
     <g id="line2d_38">
      <g>
       <use xlink:href="#mad3124fc00" x="536.608672" y="136.660938" style="stroke: #000000; stroke-width: 0.8"/>
      </g>
     </g>
     <g id="text_29">
      <text style="font-size: 10px; font-family: 'DejaVu Sans'; text-anchor: end" x="529.608672" y="140.459766" transform="rotate(-0 529.608672 140.459766)">0.0005</text>
     </g>
    </g>
    <g id="ytick_10">
     <g id="line2d_39">
      <path d="M 536.608672 105.422002 
L 853.048197 105.422002 
" clip-path="url(#p8215b9f08b)" style="fill: none; stroke: #b0b0b0; stroke-opacity: 0.15; stroke-width: 0.8; stroke-linecap: square"/>
     </g>
     <g id="line2d_40">
      <g>
       <use xlink:href="#mad3124fc00" x="536.608672" y="105.422002" style="stroke: #000000; stroke-width: 0.8"/>
      </g>
     </g>
     <g id="text_30">
      <text style="font-size: 10px; font-family: 'DejaVu Sans'; text-anchor: end" x="529.608672" y="109.22083" transform="rotate(-0 529.608672 109.22083)">0.0010</text>
     </g>
    </g>
    <g id="ytick_11">
     <g id="line2d_41">
      <path d="M 536.608672 74.183066 
L 853.048197 74.183066 
" clip-path="url(#p8215b9f08b)" style="fill: none; stroke: #b0b0b0; stroke-opacity: 0.15; stroke-width: 0.8; stroke-linecap: square"/>
     </g>
     <g id="line2d_42">
      <g>
       <use xlink:href="#mad3124fc00" x="536.608672" y="74.183066" style="stroke: #000000; stroke-width: 0.8"/>
      </g>
     </g>
     <g id="text_31">
      <text style="font-size: 10px; font-family: 'DejaVu Sans'; text-anchor: end" x="529.608672" y="77.981894" transform="rotate(-0 529.608672 77.981894)">0.0015</text>
     </g>
    </g>
    <g id="text_32">
     <text style="font-size: 10px; font-family: 'DejaVu Sans'; text-anchor: middle" x="479.836016" y="183.519342" transform="rotate(-90 479.836016 183.519342)">Kinematic wall shear (m2/s2)</text>
    </g>
   </g>
   <g id="line2d_43">
    <path d="M 475.93351 346.6 
L 479.074213 344.182007 
L 594.143131 254.740179 
L 651.67759 210.357079 
L 709.212049 166.703356 
L 766.746509 123.802644 
L 824.280968 82.169081 
L 865 53.905413 
L 865 53.905413 
" clip-path="url(#p8215b9f08b)" style="fill: none; stroke: #136e70; stroke-width: 1.5; stroke-linecap: square"/>
    <defs>
     <path id="mb62e334360" d="M 0 2 
C 0.530406 2 1.03916 1.789267 1.414214 1.414214 
C 1.789267 1.03916 2 0.530406 2 0 
C 2 -0.530406 1.789267 -1.03916 1.414214 -1.414214 
C 1.03916 -1.789267 0.530406 -2 0 -2 
C -0.530406 -2 -1.03916 -1.789267 -1.414214 -1.414214 
C -1.789267 -1.03916 -2 -0.530406 -2 0 
C -2 0.530406 -1.789267 1.03916 -1.414214 1.414214 
C -1.03916 1.789267 -0.530406 2 0 2 
z
" style="stroke: #136e70"/>
    </defs>
    <g clip-path="url(#p8215b9f08b)">
     <use xlink:href="#mb62e334360" x="-1" y="667.255433" style="fill: #136e70; stroke: #136e70"/>
     <use xlink:href="#mb62e334360" x="18.798539" y="657.288056" style="fill: #136e70; stroke: #136e70"/>
     <use xlink:href="#mb62e334360" x="76.332998" y="625.496354" style="fill: #136e70; stroke: #136e70"/>
     <use xlink:href="#mb62e334360" x="133.867457" y="591.059412" style="fill: #136e70; stroke: #136e70"/>
     <use xlink:href="#mb62e334360" x="191.401917" y="554.203866" style="fill: #136e70; stroke: #136e70"/>
     <use xlink:href="#mb62e334360" x="248.936376" y="515.198558" style="fill: #136e70; stroke: #136e70"/>
     <use xlink:href="#mb62e334360" x="306.470835" y="474.349016" style="fill: #136e70; stroke: #136e70"/>
     <use xlink:href="#mb62e334360" x="364.005294" y="431.989597" style="fill: #136e70; stroke: #136e70"/>
     <use xlink:href="#mb62e334360" x="421.539753" y="388.477174" style="fill: #136e70; stroke: #136e70"/>
     <use xlink:href="#mb62e334360" x="479.074213" y="344.182007" style="fill: #136e70; stroke: #136e70"/>
     <use xlink:href="#mb62e334360" x="536.608672" y="299.477442" style="fill: #136e70; stroke: #136e70"/>
     <use xlink:href="#mb62e334360" x="594.143131" y="254.740179" style="fill: #136e70; stroke: #136e70"/>
     <use xlink:href="#mb62e334360" x="651.67759" y="210.357079" style="fill: #136e70; stroke: #136e70"/>
     <use xlink:href="#mb62e334360" x="709.212049" y="166.703356" style="fill: #136e70; stroke: #136e70"/>
     <use xlink:href="#mb62e334360" x="766.746509" y="123.802644" style="fill: #136e70; stroke: #136e70"/>
     <use xlink:href="#mb62e334360" x="824.280968" y="82.169081" style="fill: #136e70; stroke: #136e70"/>
     <use xlink:href="#mb62e334360" x="881.815427" y="42.233583" style="fill: #136e70; stroke: #136e70"/>
     <use xlink:href="#mb62e334360" x="939.349886" y="3.982731" style="fill: #136e70; stroke: #136e70"/>
     <use xlink:href="#mb62e334360" x="947.234813" y="-1" style="fill: #136e70; stroke: #136e70"/>
    </g>
   </g>
   <g id="line2d_44">
    <path d="M 500.159588 346.6 
L 594.143131 271.203935 
L 651.67759 225.374352 
L 709.212049 180.314433 
L 766.746509 136.018725 
L 824.280968 92.97438 
L 865 63.80142 
L 865 63.80142 
" clip-path="url(#p8215b9f08b)" style="fill: none; stroke: #ce7524; stroke-width: 1.5; stroke-linecap: square"/>
    <defs>
     <path id="m0e2f44508a" d="M 0 2 
C 0.530406 2 1.03916 1.789267 1.414214 1.414214 
C 1.789267 1.03916 2 0.530406 2 0 
C 2 -0.530406 1.789267 -1.03916 1.414214 -1.414214 
C 1.03916 -1.789267 0.530406 -2 0 -2 
C -0.530406 -2 -1.03916 -1.789267 -1.414214 -1.414214 
C -1.789267 -1.03916 -2 -0.530406 -2 0 
C -2 0.530406 -1.789267 1.03916 -1.414214 1.414214 
C -1.03916 1.789267 -0.530406 2 0 2 
z
" style="stroke: #ce7524"/>
    </defs>
    <g clip-path="url(#p8215b9f08b)">
     <use xlink:href="#m0e2f44508a" x="-1" y="694.946619" style="fill: #ce7524; stroke: #ce7524"/>
     <use xlink:href="#m0e2f44508a" x="18.798539" y="684.830753" style="fill: #ce7524; stroke: #ce7524"/>
     <use xlink:href="#m0e2f44508a" x="76.332998" y="652.454913" style="fill: #ce7524; stroke: #ce7524"/>
     <use xlink:href="#m0e2f44508a" x="133.867457" y="617.285245" style="fill: #ce7524; stroke: #ce7524"/>
     <use xlink:href="#m0e2f44508a" x="191.401917" y="579.555658" style="fill: #ce7524; stroke: #ce7524"/>
     <use xlink:href="#m0e2f44508a" x="248.936376" y="539.545465" style="fill: #ce7524; stroke: #ce7524"/>
     <use xlink:href="#m0e2f44508a" x="306.470835" y="497.573608" style="fill: #ce7524; stroke: #ce7524"/>
     <use xlink:href="#m0e2f44508a" x="364.005294" y="453.990241" style="fill: #ce7524; stroke: #ce7524"/>
     <use xlink:href="#m0e2f44508a" x="421.539753" y="409.170107" style="fill: #ce7524; stroke: #ce7524"/>
     <use xlink:href="#m0e2f44508a" x="479.074213" y="363.502745" style="fill: #ce7524; stroke: #ce7524"/>
     <use xlink:href="#m0e2f44508a" x="536.608672" y="317.381191" style="fill: #ce7524; stroke: #ce7524"/>
     <use xlink:href="#m0e2f44508a" x="594.143131" y="271.203935" style="fill: #ce7524; stroke: #ce7524"/>
     <use xlink:href="#m0e2f44508a" x="651.67759" y="225.374352" style="fill: #ce7524; stroke: #ce7524"/>
     <use xlink:href="#m0e2f44508a" x="709.212049" y="180.314433" style="fill: #ce7524; stroke: #ce7524"/>
     <use xlink:href="#m0e2f44508a" x="766.746509" y="136.018725" style="fill: #ce7524; stroke: #ce7524"/>
     <use xlink:href="#m0e2f44508a" x="824.280968" y="92.97438" style="fill: #ce7524; stroke: #ce7524"/>
     <use xlink:href="#m0e2f44508a" x="881.815427" y="51.754086" style="fill: #ce7524; stroke: #ce7524"/>
     <use xlink:href="#m0e2f44508a" x="939.349886" y="12.284962" style="fill: #ce7524; stroke: #ce7524"/>
     <use xlink:href="#m0e2f44508a" x="959.732008" y="-1" style="fill: #ce7524; stroke: #ce7524"/>
    </g>
   </g>
   <g id="line2d_45">
    <path d="M 536.608672 167.899874 
L 853.048197 167.899874 
" clip-path="url(#p8215b9f08b)" style="fill: none; stroke: #777777; stroke-width: 0.8; stroke-linecap: square"/>
   </g>
   <g id="line2d_46">
    <defs>
     <path id="m54429cbe70" d="M 0 4 
C 1.060812 4 2.078319 3.578535 2.828427 2.828427 
C 3.578535 2.078319 4 1.060812 4 0 
C 4 -1.060812 3.578535 -2.078319 2.828427 -2.828427 
C 2.078319 -3.578535 1.060812 -4 0 -4 
C -1.060812 -4 -2.078319 -3.578535 -2.828427 -2.828427 
C -3.578535 -2.078319 -4 -1.060812 -4 0 
C -4 1.060812 -3.578535 2.078319 -2.828427 2.828427 
C -2.078319 3.578535 -1.060812 4 0 4 
z
" style="stroke: #136e70"/>
    </defs>
    <g clip-path="url(#p8215b9f08b)">
     <use xlink:href="#m54429cbe70" x="707.63507" y="167.899874" style="fill: #136e70; stroke: #136e70"/>
    </g>
   </g>
   <g id="line2d_47">
    <path d="M 707.63507 311.598979 
L 707.63507 55.439704 
" clip-path="url(#p8215b9f08b)" style="fill: none; stroke-dasharray: 1,1.65; stroke-dashoffset: 0; stroke: #136e70"/>
   </g>
   <g id="line2d_48">
    <defs>
     <path id="m2c0c92af8b" d="M 0 4 
C 1.060812 4 2.078319 3.578535 2.828427 2.828427 
C 3.578535 2.078319 4 1.060812 4 0 
C 4 -1.060812 3.578535 -2.078319 2.828427 -2.828427 
C 2.078319 -3.578535 1.060812 -4 0 -4 
C -1.060812 -4 -2.078319 -3.578535 -2.828427 -2.828427 
C -3.578535 -2.078319 -4 -1.060812 -4 0 
C -4 1.060812 -3.578535 2.078319 -2.828427 2.828427 
C -2.078319 3.578535 -1.060812 4 0 4 
z
" style="stroke: #ce7524"/>
    </defs>
    <g clip-path="url(#p8215b9f08b)">
     <use xlink:href="#m2c0c92af8b" x="725.336974" y="167.899874" style="fill: #ce7524; stroke: #ce7524"/>
    </g>
   </g>
   <g id="line2d_49">
    <path d="M 725.336974 311.598979 
L 725.336974 55.439704 
" clip-path="url(#p8215b9f08b)" style="fill: none; stroke-dasharray: 1,1.65; stroke-dashoffset: 0; stroke: #ce7524"/>
   </g>
   <g id="patch_6">
    <path d="M 536.608672 311.598979 
L 536.608672 55.439704 
" style="fill: none; stroke: #000000; stroke-width: 0.8; stroke-linejoin: miter; stroke-linecap: square"/>
   </g>
   <g id="patch_7">
    <path d="M 536.608672 311.598979 
L 853.048197 311.598979 
" style="fill: none; stroke: #000000; stroke-width: 0.8; stroke-linejoin: miter; stroke-linecap: square"/>
   </g>
   <g id="text_33">
    <text style="font-size: 12px; font-family: 'DejaVu Sans'; text-anchor: middle" x="694.828435" y="49.439704" transform="rotate(-0 694.828435 49.439704)">Different zero-crossing intervals are allowed</text>
   </g>
   <g id="legend_1">
    <g id="patch_8">
     <path d="M 542.908672 89.641111 
L 656.691172 89.641111 
Q 658.491172 89.641111 658.491172 87.841111 
L 658.491172 61.739704 
Q 658.491172 59.939704 656.691172 59.939704 
L 542.908672 59.939704 
Q 541.108672 59.939704 541.108672 61.739704 
L 541.108672 87.841111 
Q 541.108672 89.641111 542.908672 89.641111 
z
" style="fill: #ffffff; opacity: 0.8; stroke: #cccccc; stroke-linejoin: miter"/>
    </g>
    <g id="line2d_50">
     <path d="M 544.708672 67.228298 
L 553.708672 67.228298 
L 562.708672 67.228298 
" style="fill: none; stroke: #136e70; stroke-width: 1.5; stroke-linecap: square"/>
     <g>
      <use xlink:href="#mb62e334360" x="553.708672" y="67.228298" style="fill: #136e70; stroke: #136e70"/>
     </g>
    </g>
    <g id="text_34">
     <text style="font-size: 9px; font-family: 'DejaVu Sans'; text-anchor: start" x="569.908672" y="70.378298" transform="rotate(-0 569.908672 70.378298)">Native shear</text>
    </g>
    <g id="line2d_51">
     <path d="M 544.708672 80.729001 
L 553.708672 80.729001 
L 562.708672 80.729001 
" style="fill: none; stroke: #ce7524; stroke-width: 1.5; stroke-linecap: square"/>
     <g>
      <use xlink:href="#m0e2f44508a" x="553.708672" y="80.729001" style="fill: #ce7524; stroke: #ce7524"/>
     </g>
    </g>
    <g id="text_35">
     <text style="font-size: 9px; font-family: 'DejaVu Sans'; text-anchor: start" x="569.908672" y="83.879001" transform="rotate(-0 569.908672 83.879001)">Quadratic gradient</text>
    </g>
   </g>
  </g>
  <g id="text_36">
   <text style="font-size: 13px; font-family: 'DejaVu Sans'" transform="translate(308.026719 14.236353)">Re=300 retained pilot | iteration 1855</text>
   <text style="font-size: 13px; font-family: 'DejaVu Sans'" transform="translate(268.019219 29.896783)">Native X1/h = 6.647259  |  Diagnostic = 6.678027</text>
  </g>
 </g>
 <defs>
  <clipPath id="pf0675b45e3">
   <rect x="143.976802" y="55.439704" width="316.439526" height="256.159274"/>
  </clipPath>
  <clipPath id="p8215b9f08b">
   <rect x="536.608672" y="55.439704" width="316.439526" height="256.159274"/>
  </clipPath>
 </defs>
</svg>
