<?xml version="1.0" encoding="utf-8" standalone="no"?>
<!DOCTYPE svg PUBLIC "-//W3C//DTD SVG 1.1//EN"
  "http://www.w3.org/Graphics/SVG/1.1/DTD/svg11.dtd">
<svg xmlns:xlink="http://www.w3.org/1999/xlink" width="792pt" height="259.2pt" viewBox="0 0 792 259.2" xmlns="http://www.w3.org/2000/svg" version="1.1">
 <metadata>
  <rdf:RDF xmlns:dc="http://purl.org/dc/elements/1.1/" xmlns:cc="http://creativecommons.org/ns#" xmlns:rdf="http://www.w3.org/1999/02/22-rdf-syntax-ns#">
   <cc:Work>
    <dc:type rdf:resource="http://purl.org/dc/dcmitype/StillImage"/>
    <dc:date>2026-09-08T22:11:10.780340</dc:date>
    <dc:format>image/svg+xml</dc:format>
    <dc:creator>
     <cc:Agent>
      <dc:title>Matplotlib v3.11.1, https://matplotlib.org/</dc:title>
     </cc:Agent>
    </dc:creator>
   </cc:Work>
  </rdf:RDF>
 </metadata>
 <defs>
  <style type="text/css">*{stroke-linejoin: round; stroke-linecap: butt}</style>
 </defs>
 <g id="figure_1">
  <g id="patch_1">
   <path d="M 0 259.2 
L 792 259.2 
L 792 0 
L 0 0 
z
" style="fill: #ffffff"/>
  </g>
  <g id="axes_1">
   <g id="patch_2">
    <path d="M 46.266646 239.19976 
L 395.22125 239.19976 
L 395.22125 6.799068 
L 46.266646 6.799068 
z
" style="fill: #ffffff"/>
   </g>
   <g id="matplotlib.axis_1">
    <g id="xtick_1">
     <g id="line2d_1">
      <defs>
       <path id="me10e39d255" d="M 0 0 
L 0 3.5 
" style="stroke: #000000; stroke-width: 0.8"/>
      </defs>
      <g>
       <use xlink:href="#me10e39d255" x="62.128219" y="239.19976" style="stroke: #000000; stroke-width: 0.8"/>
      </g>
     </g>
     <g id="text_1">
      <text style="font-size: 10px; font-family: 'DejaVu Sans'; text-anchor: middle" x="62.128219" y="253.797416" transform="rotate(-0 62.128219 253.797416)">G0</text>
     </g>
    </g>
    <g id="xtick_2">
     <g id="line2d_2">
      <g>
       <use xlink:href="#me10e39d255" x="167.872038" y="239.19976" style="stroke: #000000; stroke-width: 0.8"/>
      </g>
     </g>
     <g id="text_2">
      <text style="font-size: 10px; font-family: 'DejaVu Sans'; text-anchor: middle" x="167.872038" y="253.797416" transform="rotate(-0 167.872038 253.797416)">G1</text>
     </g>
    </g>
    <g id="xtick_3">
     <g id="line2d_3">
      <g>
       <use xlink:href="#me10e39d255" x="273.615858" y="239.19976" style="stroke: #000000; stroke-width: 0.8"/>
      </g>
     </g>
     <g id="text_3">
      <text style="font-size: 10px; font-family: 'DejaVu Sans'; text-anchor: middle" x="273.615858" y="253.797416" transform="rotate(-0 273.615858 253.797416)">G2</text>
     </g>
    </g>
    <g id="xtick_4">
     <g id="line2d_4">
      <g>
       <use xlink:href="#me10e39d255" x="379.359677" y="239.19976" style="stroke: #000000; stroke-width: 0.8"/>
      </g>
     </g>
     <g id="text_4">
      <text style="font-size: 10px; font-family: 'DejaVu Sans'; text-anchor: middle" x="379.359677" y="253.797416" transform="rotate(-0 379.359677 253.797416)">G3</text>
     </g>
    </g>
   </g>
   <g id="matplotlib.axis_2">
    <g id="ytick_1">
     <g id="line2d_5">
      <defs>
       <path id="mddf9587643" d="M 0 0 
L -3.5 0 
" style="stroke: #000000; stroke-width: 0.8"/>
      </defs>
      <g>
       <use xlink:href="#mddf9587643" x="46.266646" y="201.905573" style="stroke: #000000; stroke-width: 0.8"/>
      </g>
     </g>
     <g id="text_5">
      <text style="font-size: 10px; font-family: 'DejaVu Sans'; text-anchor: end" x="39.266646" y="205.704401" transform="rotate(-0 39.266646 205.704401)">6.66</text>
     </g>
    </g>
    <g id="ytick_2">
     <g id="line2d_6">
      <g>
       <use xlink:href="#mddf9587643" x="46.266646" y="161.660445" style="stroke: #000000; stroke-width: 0.8"/>
      </g>
     </g>
     <g id="text_6">
      <text style="font-size: 10px; font-family: 'DejaVu Sans'; text-anchor: end" x="39.266646" y="165.459273" transform="rotate(-0 39.266646 165.459273)">6.68</text>
     </g>
    </g>
    <g id="ytick_3">
     <g id="line2d_7">
      <g>
       <use xlink:href="#mddf9587643" x="46.266646" y="121.415316" style="stroke: #000000; stroke-width: 0.8"/>
      </g>
     </g>
     <g id="text_7">
      <text style="font-size: 10px; font-family: 'DejaVu Sans'; text-anchor: end" x="39.266646" y="125.214144" transform="rotate(-0 39.266646 125.214144)">6.70</text>
     </g>
    </g>
    <g id="ytick_4">
     <g id="line2d_8">
      <g>
       <use xlink:href="#mddf9587643" x="46.266646" y="81.170188" style="stroke: #000000; stroke-width: 0.8"/>
      </g>
     </g>
     <g id="text_8">
      <text style="font-size: 10px; font-family: 'DejaVu Sans'; text-anchor: end" x="39.266646" y="84.969016" transform="rotate(-0 39.266646 84.969016)">6.72</text>
     </g>
    </g>
    <g id="ytick_5">
     <g id="line2d_9">
      <g>
       <use xlink:href="#mddf9587643" x="46.266646" y="40.925059" style="stroke: #000000; stroke-width: 0.8"/>
      </g>
     </g>
     <g id="text_9">
      <text style="font-size: 10px; font-family: 'DejaVu Sans'; text-anchor: end" x="39.266646" y="44.723887" transform="rotate(-0 39.266646 44.723887)">6.74</text>
     </g>
    </g>
    <g id="text_10">
     <text style="font-size: 10px; font-family: 'DejaVu Sans'; text-anchor: middle" x="10.598678" y="122.999414" transform="rotate(-90 10.598678 122.999414)">Primary X1 / h</text>
    </g>
   </g>
   <g id="line2d_10">
    <path d="M 62.128219 227.543591 
L 167.872038 78.753137 
L 273.615858 33.285961 
L 379.359677 17.362736 
" clip-path="url(#p76064b915e)" style="fill: none; stroke: #1f77b4; stroke-width: 1.5; stroke-linecap: square"/>
    <defs>
     <path id="m66301638d3" d="M 0 3 
C 0.795609 3 1.55874 2.683901 2.12132 2.12132 
C 2.683901 1.55874 3 0.795609 3 0 
C 3 -0.795609 2.683901 -1.55874 2.12132 -2.12132 
C 1.55874 -2.683901 0.795609 -3 0 -3 
C -0.795609 -3 -1.55874 -2.683901 -2.12132 -2.12132 
C -2.683901 -1.55874 -3 -0.795609 -3 0 
C -3 0.795609 -2.683901 1.55874 -2.12132 2.12132 
C -1.55874 2.683901 -0.795609 3 0 3 
z
" style="stroke: #1f77b4"/>
    </defs>
    <g clip-path="url(#p76064b915e)">
     <use xlink:href="#m66301638d3" x="62.128219" y="227.543591" style="fill: #1f77b4; stroke: #1f77b4"/>
     <use xlink:href="#m66301638d3" x="167.872038" y="78.753137" style="fill: #1f77b4; stroke: #1f77b4"/>
     <use xlink:href="#m66301638d3" x="273.615858" y="33.285961" style="fill: #1f77b4; stroke: #1f77b4"/>
     <use xlink:href="#m66301638d3" x="379.359677" y="17.362736" style="fill: #1f77b4; stroke: #1f77b4"/>
    </g>
   </g>
   <g id="line2d_11">
    <path d="M 62.128219 228.636046 
L 167.872038 79.026075 
L 273.615858 33.354246 
L 379.359677 17.383635 
" clip-path="url(#p76064b915e)" style="fill: none; stroke: #ff7f0e; stroke-width: 1.5; stroke-linecap: square"/>
    <defs>
     <path id="md71467ea1c" d="M 0 3 
C 0.795609 3 1.55874 2.683901 2.12132 2.12132 
C 2.683901 1.55874 3 0.795609 3 0 
C 3 -0.795609 2.683901 -1.55874 2.12132 -2.12132 
C 1.55874 -2.683901 0.795609 -3 0 -3 
C -0.795609 -3 -1.55874 -2.683901 -2.12132 -2.12132 
C -2.683901 -1.55874 -3 -0.795609 -3 0 
C -3 0.795609 -2.683901 1.55874 -2.12132 2.12132 
C -1.55874 2.683901 -0.795609 3 0 3 
z
" style="stroke: #ff7f0e"/>
    </defs>
    <g clip-path="url(#p76064b915e)">
     <use xlink:href="#md71467ea1c" x="62.128219" y="228.636046" style="fill: #ff7f0e; stroke: #ff7f0e"/>
     <use xlink:href="#md71467ea1c" x="167.872038" y="79.026075" style="fill: #ff7f0e; stroke: #ff7f0e"/>
     <use xlink:href="#md71467ea1c" x="273.615858" y="33.354246" style="fill: #ff7f0e; stroke: #ff7f0e"/>
     <use xlink:href="#md71467ea1c" x="379.359677" y="17.383635" style="fill: #ff7f0e; stroke: #ff7f0e"/>
    </g>
   </g>
   <g id="line2d_12">
    <path d="M 62.128219 227.543638 
L 167.872038 78.753331 
L 273.615858 33.286766 
L 379.359677 17.36608 
" clip-path="url(#p76064b915e)" style="fill: none; stroke: #2ca02c; stroke-width: 1.5; stroke-linecap: square"/>
    <defs>
     <path id="m951649621b" d="M 0 3 
C 0.795609 3 1.55874 2.683901 2.12132 2.12132 
C 2.683901 1.55874 3 0.795609 3 0 
C 3 -0.795609 2.683901 -1.55874 2.12132 -2.12132 
C 1.55874 -2.683901 0.795609 -3 0 -3 
C -0.795609 -3 -1.55874 -2.683901 -2.12132 -2.12132 
C -2.683901 -1.55874 -3 -0.795609 -3 0 
C -3 0.795609 -2.683901 1.55874 -2.12132 2.12132 
C -1.55874 2.683901 -0.795609 3 0 3 
z
" style="stroke: #2ca02c"/>
    </defs>
    <g clip-path="url(#p76064b915e)">
     <use xlink:href="#m951649621b" x="62.128219" y="227.543638" style="fill: #2ca02c; stroke: #2ca02c"/>
     <use xlink:href="#m951649621b" x="167.872038" y="78.753331" style="fill: #2ca02c; stroke: #2ca02c"/>
     <use xlink:href="#m951649621b" x="273.615858" y="33.286766" style="fill: #2ca02c; stroke: #2ca02c"/>
     <use xlink:href="#m951649621b" x="379.359677" y="17.36608" style="fill: #2ca02c; stroke: #2ca02c"/>
    </g>
   </g>
   <g id="line2d_13">
    <path d="M 62.128219 228.636092 
L 167.872038 79.026257 
L 273.615858 33.354993 
L 379.359677 17.386731 
" clip-path="url(#p76064b915e)" style="fill: none; stroke: #d62728; stroke-width: 1.5; stroke-linecap: square"/>
    <defs>
     <path id="m4816394e89" d="M 0 3 
C 0.795609 3 1.55874 2.683901 2.12132 2.12132 
C 2.683901 1.55874 3 0.795609 3 0 
C 3 -0.795609 2.683901 -1.55874 2.12132 -2.12132 
C 1.55874 -2.683901 0.795609 -3 0 -3 
C -0.795609 -3 -1.55874 -2.683901 -2.12132 -2.12132 
C -2.683901 -1.55874 -3 -0.795609 -3 0 
C -3 0.795609 -2.683901 1.55874 -2.12132 2.12132 
C -1.55874 2.683901 -0.795609 3 0 3 
z
" style="stroke: #d62728"/>
    </defs>
    <g clip-path="url(#p76064b915e)">
     <use xlink:href="#m4816394e89" x="62.128219" y="228.636092" style="fill: #d62728; stroke: #d62728"/>
     <use xlink:href="#m4816394e89" x="167.872038" y="79.026257" style="fill: #d62728; stroke: #d62728"/>
     <use xlink:href="#m4816394e89" x="273.615858" y="33.354993" style="fill: #d62728; stroke: #d62728"/>
     <use xlink:href="#m4816394e89" x="379.359677" y="17.386731" style="fill: #d62728; stroke: #d62728"/>
    </g>
   </g>
   <g id="line2d_14">
    <path d="M 46.266646 18.790239 
L 395.22125 18.790239 
" clip-path="url(#p76064b915e)" style="fill: none; stroke-dasharray: 5.55,2.4; stroke-dashoffset: 0; stroke: #888888; stroke-width: 1.5"/>
   </g>
   <g id="patch_3">
    <path d="M 46.266646 239.19976 
L 46.266646 6.799068 
" style="fill: none; stroke: #000000; stroke-width: 0.8; stroke-linejoin: miter; stroke-linecap: square"/>
   </g>
   <g id="patch_4">
    <path d="M 46.266646 239.19976 
L 395.22125 239.19976 
" style="fill: none; stroke: #000000; stroke-width: 0.8; stroke-linejoin: miter; stroke-linecap: square"/>
   </g>
   <g id="legend_1">
    <g id="patch_5">
     <path d="M 315.91875 235.19976 
L 389.62125 235.19976 
Q 391.22125 235.19976 391.22125 233.59976 
L 391.22125 174.396635 
Q 391.22125 172.796635 389.62125 172.796635 
L 315.91875 172.796635 
Q 314.31875 172.796635 314.31875 174.396635 
L 314.31875 233.59976 
Q 314.31875 235.19976 315.91875 235.19976 
z
" style="fill: #ffffff; opacity: 0.8; stroke: #cccccc; stroke-linejoin: miter"/>
    </g>
    <g id="line2d_15">
     <path d="M 317.51875 179.275385 
L 325.51875 179.275385 
L 333.51875 179.275385 
" style="fill: none; stroke: #1f77b4; stroke-width: 1.5; stroke-linecap: square"/>
     <g>
      <use xlink:href="#m66301638d3" x="325.51875" y="179.275385" style="fill: #1f77b4; stroke: #1f77b4"/>
     </g>
    </g>
    <g id="text_11">
     <text style="font-size: 8px; font-family: 'DejaVu Sans'; text-anchor: start" x="339.91875" y="182.075385" transform="rotate(-0 339.91875 182.075385)">5h/30h</text>
    </g>
    <g id="line2d_16">
     <path d="M 317.51875 191.27601 
L 325.51875 191.27601 
L 333.51875 191.27601 
" style="fill: none; stroke: #ff7f0e; stroke-width: 1.5; stroke-linecap: square"/>
     <g>
      <use xlink:href="#md71467ea1c" x="325.51875" y="191.27601" style="fill: #ff7f0e; stroke: #ff7f0e"/>
     </g>
    </g>
    <g id="text_12">
     <text style="font-size: 8px; font-family: 'DejaVu Sans'; text-anchor: start" x="339.91875" y="194.07601" transform="rotate(-0 339.91875 194.07601)">10h/30h</text>
    </g>
    <g id="line2d_17">
     <path d="M 317.51875 203.276635 
L 325.51875 203.276635 
L 333.51875 203.276635 
" style="fill: none; stroke: #2ca02c; stroke-width: 1.5; stroke-linecap: square"/>
     <g>
      <use xlink:href="#m951649621b" x="325.51875" y="203.276635" style="fill: #2ca02c; stroke: #2ca02c"/>
     </g>
    </g>
    <g id="text_13">
     <text style="font-size: 8px; font-family: 'DejaVu Sans'; text-anchor: start" x="339.91875" y="206.076635" transform="rotate(-0 339.91875 206.076635)">5h/60h</text>
    </g>
    <g id="line2d_18">
     <path d="M 317.51875 215.27726 
L 325.51875 215.27726 
L 333.51875 215.27726 
" style="fill: none; stroke: #d62728; stroke-width: 1.5; stroke-linecap: square"/>
     <g>
      <use xlink:href="#m4816394e89" x="325.51875" y="215.27726" style="fill: #d62728; stroke: #d62728"/>
     </g>
    </g>
    <g id="text_14">
     <text style="font-size: 8px; font-family: 'DejaVu Sans'; text-anchor: start" x="339.91875" y="218.07726" transform="rotate(-0 339.91875 218.07726)">10h/60h</text>
    </g>
    <g id="line2d_19">
     <path d="M 317.51875 227.277885 
L 325.51875 227.277885 
L 333.51875 227.277885 
" style="fill: none; stroke-dasharray: 5.55,2.4; stroke-dashoffset: 0; stroke: #888888; stroke-width: 1.5"/>
    </g>
    <g id="text_15">
     <text style="font-size: 8px; font-family: 'DejaVu Sans'; text-anchor: start" x="339.91875" y="230.077885" transform="rotate(-0 339.91875 230.077885)">Paper 6.751</text>
    </g>
   </g>
  </g>
  <g id="axes_2">
   <g id="patch_6">
    <path d="M 440.045156 239.19976 
L 788.99976 239.19976 
L 788.99976 6.799068 
L 440.045156 6.799068 
z
" style="fill: #ffffff"/>
   </g>
   <g id="patch_7">
    <path d="M 455.906729 239.19976 
L 522.692299 239.19976 
L 522.692299 208.615881 
L 455.906729 208.615881 
z
" clip-path="url(#p715005c6cf)" style="fill: #136e70"/>
   </g>
   <g id="patch_8">
    <path d="M 539.388692 239.19976 
L 606.174262 239.19976 
L 606.174262 208.596439 
L 539.388692 208.596439 
z
" clip-path="url(#p715005c6cf)" style="fill: #136e70"/>
   </g>
   <g id="patch_9">
    <path d="M 622.870654 239.19976 
L 689.656224 239.19976 
L 689.656224 208.627618 
L 622.870654 208.627618 
z
" clip-path="url(#p715005c6cf)" style="fill: #136e70"/>
   </g>
   <g id="patch_10">
    <path d="M 706.352617 239.19976 
L 773.138187 239.19976 
L 773.138187 208.607268 
L 706.352617 208.607268 
z
" clip-path="url(#p715005c6cf)" style="fill: #136e70"/>
   </g>
   <g id="matplotlib.axis_3">
    <g id="xtick_5">
     <g id="line2d_20">
      <g>
       <use xlink:href="#me10e39d255" x="489.299514" y="239.19976" style="stroke: #000000; stroke-width: 0.8"/>
      </g>
     </g>
     <g id="text_16">
      <text style="font-size: 10px; font-family: 'DejaVu Sans'; text-anchor: middle" x="489.299514" y="253.797416" transform="rotate(-0 489.299514 253.797416)">5/30</text>
     </g>
    </g>
    <g id="xtick_6">
     <g id="line2d_21">
      <g>
       <use xlink:href="#me10e39d255" x="572.781477" y="239.19976" style="stroke: #000000; stroke-width: 0.8"/>
      </g>
     </g>
     <g id="text_17">
      <text style="font-size: 10px; font-family: 'DejaVu Sans'; text-anchor: middle" x="572.781477" y="253.797416" transform="rotate(-0 572.781477 253.797416)">10/30</text>
     </g>
    </g>
    <g id="xtick_7">
     <g id="line2d_22">
      <g>
       <use xlink:href="#me10e39d255" x="656.263439" y="239.19976" style="stroke: #000000; stroke-width: 0.8"/>
      </g>
     </g>
     <g id="text_18">
      <text style="font-size: 10px; font-family: 'DejaVu Sans'; text-anchor: middle" x="656.263439" y="253.797416" transform="rotate(-0 656.263439 253.797416)">5/60</text>
     </g>
    </g>
    <g id="xtick_8">
     <g id="line2d_23">
      <g>
       <use xlink:href="#me10e39d255" x="739.745402" y="239.19976" style="stroke: #000000; stroke-width: 0.8"/>
      </g>
     </g>
     <g id="text_19">
      <text style="font-size: 10px; font-family: 'DejaVu Sans'; text-anchor: middle" x="739.745402" y="253.797416" transform="rotate(-0 739.745402 253.797416)">10/60</text>
     </g>
    </g>
   </g>
   <g id="matplotlib.axis_4">
    <g id="ytick_6">
     <g id="line2d_24">
      <g>
       <use xlink:href="#mddf9587643" x="440.045156" y="239.19976" style="stroke: #000000; stroke-width: 0.8"/>
      </g>
     </g>
     <g id="text_20">
      <text style="font-size: 10px; font-family: 'DejaVu Sans'; text-anchor: end" x="433.045156" y="242.998588" transform="rotate(-0 433.045156 242.998588)">0.0</text>
     </g>
    </g>
    <g id="ytick_7">
     <g id="line2d_25">
      <g>
       <use xlink:href="#mddf9587643" x="440.045156" y="200.466311" style="stroke: #000000; stroke-width: 0.8"/>
      </g>
     </g>
     <g id="text_21">
      <text style="font-size: 10px; font-family: 'DejaVu Sans'; text-anchor: end" x="433.045156" y="204.265139" transform="rotate(-0 433.045156 204.265139)">0.1</text>
     </g>
    </g>
    <g id="ytick_8">
     <g id="line2d_26">
      <g>
       <use xlink:href="#mddf9587643" x="440.045156" y="161.732863" style="stroke: #000000; stroke-width: 0.8"/>
      </g>
     </g>
     <g id="text_22">
      <text style="font-size: 10px; font-family: 'DejaVu Sans'; text-anchor: end" x="433.045156" y="165.531691" transform="rotate(-0 433.045156 165.531691)">0.2</text>
     </g>
    </g>
    <g id="ytick_9">
     <g id="line2d_27">
      <g>
       <use xlink:href="#mddf9587643" x="440.045156" y="122.999414" style="stroke: #000000; stroke-width: 0.8"/>
      </g>
     </g>
     <g id="text_23">
      <text style="font-size: 10px; font-family: 'DejaVu Sans'; text-anchor: end" x="433.045156" y="126.798242" transform="rotate(-0 433.045156 126.798242)">0.3</text>
     </g>
    </g>
    <g id="ytick_10">
     <g id="line2d_28">
      <g>
       <use xlink:href="#mddf9587643" x="440.045156" y="84.265965" style="stroke: #000000; stroke-width: 0.8"/>
      </g>
     </g>
     <g id="text_24">
      <text style="font-size: 10px; font-family: 'DejaVu Sans'; text-anchor: end" x="433.045156" y="88.064794" transform="rotate(-0 433.045156 88.064794)">0.4</text>
     </g>
    </g>
    <g id="ytick_11">
     <g id="line2d_29">
      <g>
       <use xlink:href="#mddf9587643" x="440.045156" y="45.532517" style="stroke: #000000; stroke-width: 0.8"/>
      </g>
     </g>
     <g id="text_25">
      <text style="font-size: 10px; font-family: 'DejaVu Sans'; text-anchor: end" x="433.045156" y="49.331345" transform="rotate(-0 433.045156 49.331345)">0.5</text>
     </g>
    </g>
    <g id="ytick_12">
     <g id="line2d_30">
      <g>
       <use xlink:href="#mddf9587643" x="440.045156" y="6.799068" style="stroke: #000000; stroke-width: 0.8"/>
      </g>
     </g>
     <g id="text_26">
      <text style="font-size: 10px; font-family: 'DejaVu Sans'; text-anchor: end" x="433.045156" y="10.597896" transform="rotate(-0 433.045156 10.597896)">0.6</text>
     </g>
    </g>
    <g id="text_27">
     <text style="font-size: 10px; font-family: 'DejaVu Sans'; text-anchor: middle" x="410.739687" y="122.999414" transform="rotate(-90 410.739687 122.999414)">Finest-three GCI (%)</text>
    </g>
   </g>
   <g id="line2d_31">
    <path d="M 440.045156 45.532517 
L 788.99976 45.532517 
" clip-path="url(#p715005c6cf)" style="fill: none; stroke-dasharray: 5.55,2.4; stroke-dashoffset: 0; stroke: #ce7524; stroke-width: 1.5"/>
   </g>
   <g id="patch_11">
    <path d="M 440.045156 239.19976 
L 440.045156 6.799068 
" style="fill: none; stroke: #000000; stroke-width: 0.8; stroke-linejoin: miter; stroke-linecap: square"/>
   </g>
   <g id="patch_12">
    <path d="M 440.045156 239.19976 
L 788.99976 239.19976 
" style="fill: none; stroke: #000000; stroke-width: 0.8; stroke-linejoin: miter; stroke-linecap: square"/>
   </g>
  </g>
 </g>
 <defs>
  <clipPath id="p76064b915e">
   <rect x="46.266646" y="6.799068" width="348.954604" height="232.400692"/>
  </clipPath>
  <clipPath id="p715005c6cf">
   <rect x="440.045156" y="6.799068" width="348.954604" height="232.400692"/>
  </clipPath>
 </defs>
</svg>
